<?xml version="1.0" encoding="utf-8"?>
<!-- Generator: Adobe Illustrator 24.1.2, SVG Export Plug-In . SVG Version: 6.00 Build 0)  -->
<svg version="1.1" id="Layer_1" xmlns="http://www.w3.org/2000/svg" xmlns:xlink="http://www.w3.org/1999/xlink" x="0px" y="0px"
	 viewBox="0 0 78.7 39.4" style="enable-background:new 0 0 78.7 39.4;" xml:space="preserve">
<style type="text/css">
	.st0{fill:none;}
	.st1{font-family:'SamsungSans-Bold';}
	.st2{font-size:15px;}
</style>
<path d="M39.4,0.1c-6.6,0-12,5.4-12,12s5.4,12,12,12s12-5.4,12-12S46,0.1,39.4,0.1z M39.4,11.8c0,2.9-1.9,4.8-4.5,5.3L34.4,16
	c1.2-0.5,2-1.8,2-2.9h-2v-5h5V11.8z M45.4,11.8c0,2.9-1.9,4.8-4.5,5.3L40.4,16c1.2-0.5,2-1.8,2-2.9h-2v-5h5V11.8z"/>
<rect x="0.1" y="25.3" class="st0" width="78.6" height="17.1"/>
<text transform="matrix(1 0 0 1 1.0578 36.5651)" class="st1 st2">the Quotes</text>
</svg>
