<?xml version="1.0" encoding="utf-8"?>
<!-- Generator: Adobe Illustrator 24.1.2, SVG Export Plug-In . SVG Version: 6.00 Build 0)  -->
<svg version="1.1" id="Layer_1" xmlns="http://www.w3.org/2000/svg" xmlns:xlink="http://www.w3.org/1999/xlink" x="0px" y="0px"
	 viewBox="0 0 78.7 39.4" style="enable-background:new 0 0 78.7 39.4;" xml:space="preserve">
<path d="M39.4,0.1c-6.6,0-12,5.4-12,12s5.4,12,12,12s12-5.4,12-12S46,0.1,39.4,0.1z M39.4,11.8c0,2.9-1.9,4.8-4.5,5.3L34.4,16
	c1.2-0.5,2-1.8,2-2.9h-2v-5h5V11.8z M45.4,11.8c0,2.9-1.9,4.8-4.5,5.3L40.4,16c1.2-0.5,2-1.8,2-2.9h-2v-5h5V11.8z"/>
<g>
	<path d="M7,36.3c-0.6,0.2-1.1,0.4-1.7,0.4c-0.9,0-1.6-0.3-2-0.8c-0.4-0.5-0.6-1.3-0.6-2.3v-3.3H1.2v-1.6h1.4v-1.9l2.1-0.2v2h1.9
		v1.6H4.8v3c0,0.5,0.1,0.9,0.2,1.2c0.1,0.3,0.4,0.5,0.8,0.5c0.3,0,0.5-0.1,0.9-0.2L7,36.3z"/>
	<path d="M13.3,36.6c-0.1-0.3-0.1-0.7-0.1-1.1c0-0.4,0-0.7,0-1v-2.7c0-0.2,0-0.4-0.1-0.6c0-0.2-0.1-0.3-0.2-0.5
		c-0.1-0.1-0.2-0.2-0.3-0.3s-0.3-0.1-0.5-0.1c-0.3,0-0.5,0.1-0.8,0.2c-0.3,0.1-0.6,0.3-0.8,0.5v5.7H8.2V25.5l2.1-0.2v4.3
		c0.3-0.3,0.7-0.5,1.1-0.7c0.4-0.2,0.8-0.3,1.3-0.3c0.4,0,0.8,0.1,1.1,0.2c0.3,0.2,0.5,0.4,0.7,0.6c0.2,0.3,0.3,0.6,0.4,1
		c0.1,0.4,0.1,0.8,0.1,1.2v2.8c0,0.3,0,0.6,0,1c0,0.4,0.1,0.8,0.2,1.1H13.3z"/>
	<path d="M23.4,35.9c-0.5,0.3-1,0.5-1.5,0.7c-0.5,0.1-1,0.2-1.4,0.2c-0.6,0-1.1-0.1-1.6-0.3c-0.5-0.2-0.9-0.4-1.2-0.8
		c-0.4-0.3-0.6-0.8-0.8-1.3c-0.2-0.5-0.3-1.1-0.3-1.8c0-0.6,0.1-1.1,0.2-1.6c0.1-0.5,0.4-0.9,0.7-1.3c0.3-0.3,0.7-0.6,1.1-0.8
		c0.4-0.2,0.9-0.3,1.5-0.3c0.5,0,1,0.1,1.5,0.3c0.4,0.2,0.8,0.4,1.1,0.8c0.3,0.3,0.5,0.7,0.7,1.1c0.2,0.4,0.2,0.9,0.2,1.4
		c0,0.2,0,0.4,0,0.6c0,0.2,0,0.4-0.1,0.6h-4.8c0.1,0.6,0.4,1,0.7,1.3c0.3,0.3,0.8,0.4,1.3,0.4c0.3,0,0.7-0.1,1-0.2
		c0.3-0.1,0.7-0.3,1-0.5L23.4,35.9z M21.6,31.9c0-0.5-0.1-1-0.4-1.3s-0.6-0.5-1-0.5c-0.5,0-0.9,0.2-1.1,0.5s-0.4,0.7-0.4,1.2H21.6z"
		/>
	<path d="M36,39.4c-0.4-0.3-0.9-0.7-1.2-1.2c-0.4-0.5-0.8-1-1.1-1.5c-0.1,0-0.2,0-0.3,0c-0.1,0-0.2,0-0.3,0c-0.8,0-1.5-0.1-2.1-0.4
		c-0.6-0.3-1.1-0.6-1.6-1.1c-0.4-0.5-0.8-1.1-1-1.7c-0.2-0.7-0.3-1.4-0.3-2.2s0.1-1.5,0.3-2.2c0.2-0.7,0.6-1.2,1-1.7
		c0.4-0.5,1-0.9,1.6-1.1c0.6-0.3,1.3-0.4,2.1-0.4c0.8,0,1.5,0.1,2.1,0.4c0.6,0.3,1.1,0.7,1.6,1.1c0.4,0.5,0.8,1.1,1,1.7
		s0.3,1.4,0.3,2.2c0,1.1-0.2,2.1-0.7,2.9c-0.4,0.8-1,1.5-1.8,1.9c0.6,0.7,1.2,1.3,1.9,1.8L36,39.4z M34.3,34.6
		c0.4-0.2,0.6-0.4,0.9-0.7c0.2-0.3,0.4-0.7,0.5-1.1c0.1-0.5,0.2-0.9,0.2-1.5s-0.1-1-0.2-1.5c-0.1-0.5-0.3-0.8-0.5-1.2
		c-0.2-0.3-0.5-0.6-0.9-0.7c-0.4-0.2-0.8-0.3-1.2-0.3c-0.5,0-0.9,0.1-1.2,0.3c-0.4,0.2-0.6,0.4-0.9,0.7c-0.2,0.3-0.4,0.7-0.5,1.2
		s-0.2,0.9-0.2,1.5s0.1,1,0.2,1.5c0.1,0.4,0.3,0.8,0.5,1.1c0.2,0.3,0.5,0.6,0.9,0.7c0.4,0.2,0.7,0.3,1.2,0.3
		C33.5,34.9,33.9,34.8,34.3,34.6z"/>
	<path d="M44.6,36.6c0-0.1-0.1-0.2-0.1-0.4c0-0.2,0-0.3-0.1-0.5c-0.4,0.3-0.7,0.5-1.1,0.7c-0.4,0.2-0.9,0.3-1.3,0.3
		c-0.4,0-0.8-0.1-1.1-0.2c-0.3-0.2-0.6-0.4-0.8-0.6c-0.2-0.3-0.3-0.6-0.4-1c-0.1-0.4-0.1-0.8-0.1-1.2v-4.9l2.1-0.2v4.9
		c0,0.5,0.1,0.9,0.2,1.1c0.2,0.3,0.4,0.4,0.8,0.4c0.2,0,0.5,0,0.7-0.1c0.3-0.1,0.5-0.2,0.7-0.4v-5.7l2.1-0.2v5.8c0,0.3,0,0.6,0,1
		c0,0.4,0.1,0.8,0.2,1.1H44.6z"/>
	<path d="M54.7,35.6c-0.3,0.4-0.7,0.6-1.2,0.8c-0.5,0.2-1,0.3-1.7,0.3c-0.6,0-1.2-0.1-1.7-0.3c-0.5-0.2-0.9-0.5-1.2-0.8
		c-0.3-0.4-0.6-0.8-0.8-1.3c-0.2-0.5-0.3-1-0.3-1.6s0.1-1.1,0.3-1.7c0.2-0.5,0.4-0.9,0.8-1.3c0.3-0.4,0.8-0.6,1.2-0.8
		c0.5-0.2,1-0.3,1.7-0.3c0.6,0,1.2,0.1,1.7,0.3c0.5,0.2,0.9,0.5,1.2,0.8c0.3,0.4,0.6,0.8,0.8,1.3c0.2,0.5,0.3,1.1,0.3,1.7
		s-0.1,1.1-0.3,1.6S55,35.2,54.7,35.6z M51.8,35.1c0.6,0,1.1-0.2,1.4-0.7s0.4-1,0.4-1.7s-0.1-1.3-0.4-1.7c-0.3-0.4-0.7-0.7-1.4-0.7
		s-1.1,0.2-1.4,0.7c-0.3,0.4-0.4,1-0.4,1.7s0.1,1.3,0.4,1.7C50.7,34.8,51.1,35.1,51.8,35.1z"/>
	<path d="M62.2,36.3c-0.6,0.2-1.2,0.4-1.7,0.4c-0.9,0-1.6-0.3-2-0.8c-0.4-0.5-0.6-1.3-0.6-2.3v-3.3h-1.4v-1.6h1.4v-1.9l2.1-0.2v2
		h1.9v1.6H60v3c0,0.5,0.1,0.9,0.2,1.2c0.1,0.3,0.4,0.5,0.8,0.5c0.3,0,0.5-0.1,0.9-0.2L62.2,36.3z"/>
	<path d="M69.8,35.9c-0.5,0.3-1,0.5-1.5,0.7c-0.5,0.1-1,0.2-1.4,0.2c-0.6,0-1.1-0.1-1.6-0.3c-0.5-0.2-0.9-0.4-1.2-0.8
		c-0.4-0.3-0.6-0.8-0.8-1.3c-0.2-0.5-0.3-1.1-0.3-1.8c0-0.6,0.1-1.1,0.2-1.6c0.2-0.5,0.4-0.9,0.7-1.3c0.3-0.3,0.7-0.6,1.1-0.8
		c0.4-0.2,0.9-0.3,1.5-0.3c0.5,0,1,0.1,1.5,0.3c0.4,0.2,0.8,0.4,1.1,0.8c0.3,0.3,0.5,0.7,0.7,1.1c0.2,0.4,0.2,0.9,0.2,1.4
		c0,0.2,0,0.4,0,0.6c0,0.2-0.1,0.4-0.1,0.6h-4.8c0.1,0.6,0.4,1,0.7,1.3c0.3,0.3,0.8,0.4,1.3,0.4c0.3,0,0.7-0.1,1-0.2
		c0.3-0.1,0.7-0.3,1-0.5L69.8,35.9z M67.9,31.9c0-0.5-0.1-1-0.4-1.3s-0.6-0.5-1-0.5c-0.5,0-0.9,0.2-1.1,0.5
		c-0.2,0.3-0.4,0.7-0.4,1.2H67.9z"/>
	<path d="M76.4,30.9c-0.4-0.2-0.8-0.4-1.2-0.5c-0.3-0.1-0.7-0.2-1-0.2c-0.3,0-0.5,0.1-0.8,0.2c-0.2,0.1-0.3,0.3-0.3,0.5
		c0,0.2,0.1,0.4,0.4,0.6c0.3,0.1,0.6,0.3,1,0.4c0.3,0.1,0.6,0.2,0.9,0.3c0.3,0.1,0.6,0.3,0.8,0.5c0.3,0.2,0.5,0.4,0.6,0.7
		c0.2,0.3,0.2,0.6,0.2,1c0,0.4-0.1,0.8-0.3,1.1c-0.2,0.3-0.4,0.5-0.7,0.7c-0.3,0.2-0.6,0.3-1,0.4c-0.4,0.1-0.8,0.1-1.2,0.1
		c-1.1,0-2.1-0.3-3-0.8l0.6-1.5c0.4,0.2,0.8,0.4,1.2,0.5c0.4,0.1,0.8,0.2,1.2,0.2c0.3,0,0.6,0,0.8-0.1c0.2-0.1,0.4-0.3,0.4-0.5
		s-0.1-0.4-0.4-0.6c-0.3-0.1-0.6-0.3-1-0.4c-0.3-0.1-0.6-0.2-0.9-0.3c-0.3-0.1-0.6-0.3-0.8-0.5c-0.3-0.2-0.5-0.4-0.6-0.7
		c-0.2-0.3-0.3-0.6-0.3-1c0-0.4,0.1-0.7,0.2-1c0.2-0.3,0.4-0.5,0.7-0.7c0.3-0.2,0.6-0.3,1-0.4c0.4-0.1,0.7-0.1,1.1-0.1
		c0.5,0,1,0.1,1.5,0.2c0.5,0.1,1,0.3,1.4,0.6L76.4,30.9z"/>
</g>
</svg>
